<?xml version="1.0" standalone="no"?><!DOCTYPE svg PUBLIC "-//W3C//DTD SVG 1.1//EN" "http://www.w3.org/Graphics/SVG/1.1/DTD/svg11.dtd"><svg t="1740642752621" class="icon" viewBox="0 0 1024 1024" version="1.1" xmlns="http://www.w3.org/2000/svg" p-id="4465" xmlns:xlink="http://www.w3.org/1999/xlink" width="200" height="200"><path d="M268.503 320.18l490.992 0.001 0.803-29.174a201.2 201.2 0 0 0 0.08-5.627c0-60.31-26.062-116.816-73.385-159.109C640.618 84.825 579.181 62 513.999 62S387.38 84.825 341.005 126.271c-47.323 42.292-73.385 98.798-73.385 159.108 0 1.825 0.027 3.719 0.079 5.627l0.804 29.174zM513.999 122c92.997 0 170.304 60.012 184.165 138.18H329.833C343.695 182.012 421.002 122 513.999 122z" fill="#141414" p-id="4466"></path><path d="M930 590.982h-96.163V402.933l66.896-66.994c11.651-11.669 11.651-30.762 0-42.431-5.832-5.842-13.52-8.761-21.208-8.761s-15.375 2.921-21.208 8.761l-76.618 76.73H247.016l-76.618-76.73c-5.832-5.842-13.52-8.761-21.208-8.761s-15.376 2.921-21.208 8.761c-11.651 11.669-11.651 30.762 0 42.431l66.178 66.275v188.741H94.085C77.538 590.955 64 604.467 64 620.982s13.538 30.027 30.085 30.027h100.446c1.783 37.638 10.126 74.241 24.884 109.012a319.987 319.987 0 0 0 33.06 59.438 29.786 29.786 0 0 0-5.816 4.533l-82.697 82.818c-11.651 11.669-11.651 30.762 0 42.43 5.832 5.84 13.52 8.761 21.208 8.761 7.688 0 15.376-2.921 21.208-8.761l82.697-82.818a30.01 30.01 0 0 0 1.781-1.959c28.775 28.131 62.009 50.343 98.865 66.015 39.454 16.776 81.267 25.283 124.278 25.283 43.011 0 84.824-8.507 124.278-25.283 35.028-14.894 66.785-35.694 94.553-61.869l80.513 80.631c5.832 5.84 13.52 8.761 21.208 8.761s15.375-2.921 21.208-8.761c11.651-11.669 11.651-30.762 0-42.43l-82.697-82.818c-0.156-0.156-0.318-0.302-0.477-0.454a319.812 319.812 0 0 0 35.997-63.517c14.762-34.779 23.105-71.391 24.885-109.039H930c16.5 0 30-13.5 30-30s-13.5-30-30-30z m-156.163 44.675c0 69.161-27.119 134.394-76.362 183.682-39.789 39.825-89.979 65.181-144.232 73.449V692.53c0.001-16.506-13.492-30.01-29.983-30.01h-0.033c-16.491 0-29.983 13.504-29.983 30.01v202.394c-61.297-4.874-118.448-31.272-162.721-75.585-49.243-49.288-76.363-114.521-76.363-183.681v-205.42h239.084v73.153c0 16.506 13.492 30.01 29.983 30.01h0.034c16.491 0 29.983-13.504 29.983-30.01v-73.153h220.593v205.419z" fill="#141414" p-id="4467"></path></svg>